<?xml version="1.0" encoding="UTF-8" standalone="no"?>
<!-- Created with Inkscape (http://www.inkscape.org/) -->

<svg
   xmlns:dc="http://purl.org/dc/elements/1.1/"
   xmlns:cc="http://creativecommons.org/ns#"
   xmlns:rdf="http://www.w3.org/1999/02/22-rdf-syntax-ns#"
   xmlns:svg="http://www.w3.org/2000/svg"
   xmlns="http://www.w3.org/2000/svg"
   xmlns:sodipodi="http://sodipodi.sourceforge.net/DTD/sodipodi-0.dtd"
   xmlns:inkscape="http://www.inkscape.org/namespaces/inkscape"
   width="32"
   height="32"
   viewBox="0 0 31.999999 32.000001"
   id="svg4136"
   version="1.1"
   inkscape:version="0.91 r13725"
   sodipodi:docname="saveicon_merged.svg">
  <defs
     id="defs4138" />
  <sodipodi:namedview
     id="base"
     pagecolor="#ffffff"
     bordercolor="#666666"
     borderopacity="1.0"
     inkscape:pageopacity="0.0"
     inkscape:pageshadow="2"
     inkscape:zoom="11.2"
     inkscape:cx="18.37456"
     inkscape:cy="8.0879447"
     inkscape:document-units="px"
     inkscape:current-layer="layer1"
     showgrid="false"
     units="px"
     showguides="true"
     inkscape:guide-bbox="true"
     inkscape:window-width="1920"
     inkscape:window-height="1027"
     inkscape:window-x="-8"
     inkscape:window-y="148"
     inkscape:window-maximized="1" />
  <metadata
     id="metadata4141">
    <rdf:RDF>
      <cc:Work
         rdf:about="">
        <dc:format>image/svg+xml</dc:format>
        <dc:type
           rdf:resource="http://purl.org/dc/dcmitype/StillImage" />
        <dc:title></dc:title>
      </cc:Work>
    </rdf:RDF>
  </metadata>
  <g
     inkscape:label="Layer 1"
     inkscape:groupmode="layer"
     id="layer1"
     transform="translate(0,-1020.3622)">
    <path
       style="fill:#000000;fill-opacity:1;stroke:none;stroke-width:1;stroke-miterlimit:4;stroke-dasharray:none;stroke-opacity:1"
       d="m 7.7539062,5.453125 c -1.4182731,0 -2.5605468,1.1423469 -2.5605468,2.5605469 l 0,14.5722661 c 0,1.4182 1.1422737,2.560546 2.5605468,2.560546 l 12.0566408,0 2.160156,2.263672 2.371094,-2.371094 c 0.852066,-0.2409 1.514978,-0.903759 1.755859,-1.755859 l 1.722656,-1.722656 -1.615234,0 0,-8.587891 c -0.0062,-0.055 -0.01367,-0.100875 -0.01367,-0.171875 0,-0.9634 -1.487211,-2.351125 -2.955078,-3.9531248 -1.348421,-1.4716 -2.686172,-3.1129312 -4.015625,-3.3945312 z m 1.3125,2.1738281 8.9648438,0 c 0.602581,0 1.089844,0.4872438 1.089844,1.0898438 l 0,3.4433591 c 0,0.6026 -0.487263,1.087891 -1.089844,1.087891 l -8.9648438,0 c -0.6025808,0 -1.0878906,-0.485291 -1.0878906,-1.087891 l 0,-3.4433591 c 0,-0.6026 0.4853096,-1.0898438 1.0878906,-1.0898438 z m 6.9746098,1.296875 0,3.0781249 2.052734,0 0,-3.0781249 z m -6.2089848,7.1093749 11.1484378,0 c 0.376594,0 0.725002,0.114847 1.013672,0.310547 l -2.757813,0 0.01953,1.441406 -9.5019528,0 c -0.1504417,0 -0.2714843,0.121085 -0.2714843,0.271485 l 0,0.441406 c 0,0.1505 0.1210427,0.273437 0.2714843,0.273437 l 9.5136718,0 0.01367,1.15625 -9.4765625,0 c -0.1979406,0 -0.3574219,0.159522 -0.3574219,0.357422 l 0,0.271485 c 0,0.198 0.1594813,0.355468 0.3574219,0.355468 l 9.4902345,0 0.0078,0.648438 -2.882812,0.03516 0.943359,0.986328 -7.5312498,0 c -1.0001446,0 -1.8046874,-0.804487 -1.8046874,-1.804687 l 0,-2.939453 c 0,-1.0001 0.8045427,-1.804688 1.8046874,-1.804688 z m 10.6210938,1.482422 3.498047,0 0,4.826172 1.646484,0 -3.505859,3.505859 -3.326172,-3.486328 1.726563,-0.01953 z"
       transform="translate(-9.5367432e-7,1020.3622)"
       id="rect4684"
       inkscape:connector-curvature="0"
       sodipodi:nodetypes="sssscccccccsscsssssssssscccccsscccssssccssssccccsssscccccccc" />
  </g>
</svg>
